# File created by Blade
# Date/Time:  Thu Jan 22 19:29:39 2015
# Frame Rate: 120.000 fps
#------------------------------------------------------
:FULLY-SPECIFIED
:DEGREES
850
root 1.588921 34.184956 -0.116235 74.403625 -17.566452 -24.486744
RightUpLeg -9.992426 19.509348 -22.458315
RightLeg 153.998971 -0.000000 -0.000000
RightFoot 36.970395 10.033600 5.981648
RightToeBase -21.977909 -0.000000 0.000000
LeftUpLeg -77.760342 15.217913 2.293979
LeftLeg 24.255467 -0.000000 -0.000000
LeftFoot -20.505642 13.715328 -8.409149
LeftToeBase 7.774124 -0.000000 -0.000000
Spine -9.094327 -6.033341 2.380213
RightShoulder -18.928010 -31.987318 -10.265275
RightArm 7.385599 -46.296137 68.974838
RightForeArm 27.936123 -0.000000 31.555016
RightHand -5.525065 -0.000000 20.404068
RightHandThumb1 -24.326973 -0.000000 -32.862282
LeftShoulder -28.459872 3.614399 37.055166
LeftArm 122.313712 -51.449786 -106.080868
LeftForeArm -15.717563 -0.000000 65.451372
LeftHand -11.918341 -0.000000 9.621189
LeftHandThumb1 -26.253704 0.000000 33.147579
Head -24.121267 27.468101 -15.880689
851
root 1.599708 34.184313 -0.118848 74.699099 -17.510634 -24.625024
RightUpLeg -9.826042 19.562765 -22.501002
RightLeg 153.915553 -0.000000 -0.000000
RightFoot 36.961426 10.133262 5.961256
RightToeBase -21.945938 -0.000000 0.000000
LeftUpLeg -78.006345 15.219414 2.526892
LeftLeg 24.320428 -0.000000 -0.000000
LeftFoot -20.580540 13.970409 -8.342032
LeftToeBase 7.837153 -0.000000 -0.000000
Spine -9.154479 -5.993269 2.428321
RightShoulder -18.992385 -32.046243 -10.281540
RightArm 7.360399 -46.496847 68.832392
RightForeArm 28.154295 -0.000000 31.737240
RightHand -5.641854 -0.000000 20.359227
RightHandThumb1 -24.326973 -0.000000 -32.862282
LeftShoulder -28.576718 3.654601 37.064832
LeftArm 122.855320 -51.728765 -106.431329
LeftForeArm -15.969186 0.000000 65.353740
LeftHand -12.000432 -0.000000 9.594081
LeftHandThumb1 -26.253704 0.000000 33.147579
Head -24.304834 27.424216 -15.888543
852
root 1.610176 34.182931 -0.122437 74.997482 -17.483548 -24.790655
RightUpLeg -9.693898 19.614403 -22.583440
RightLeg 153.848556 -0.000000 -0.000000
RightFoot 36.942484 10.231146 5.767216
RightToeBase -22.104686 -0.000000 0.000000
LeftUpLeg -78.266395 15.283692 2.697010
LeftLeg 24.414581 -0.000000 -0.000000
LeftFoot -20.671422 14.150947 -8.287014
LeftToeBase 7.929360 -0.000000 -0.000000
Spine -9.204229 -5.888909 2.431695
RightShoulder -19.086887 -32.124610 -10.277202
RightArm 7.363936 -46.643697 68.699690
RightForeArm 28.269985 0.000000 31.843394
RightHand -5.607460 -0.000000 20.409360
RightHandThumb1 -24.326973 -0.000000 -32.862282
LeftShoulder -28.646012 3.677753 37.054507
LeftArm 123.465993 -52.045755 -106.773363
LeftForeArm -16.213952 -0.000000 65.207178
LeftHand -12.045052 -0.000000 9.617982
LeftHandThumb1 -26.253704 0.000000 33.147579
Head -24.484782 27.354920 -15.855856
853
root 1.621199 34.185411 -0.125587 75.315772 -17.442508 -24.982938
RightUpLeg -9.614652 19.683616 -22.656187
RightLeg 153.775967 -0.000000 -0.000000
RightFoot 36.891773 10.243841 5.632550
RightToeBase -22.215142 -0.000000 0.000000
LeftUpLeg -78.537998 15.377178 2.886745
LeftLeg 24.507070 -0.000000 -0.000000
LeftFoot -20.751748 14.313129 -8.269879
LeftToeBase 7.925462 -0.000000 -0.000000
Spine -9.241838 -5.798195 2.449559
RightShoulder -19.122720 -32.113049 -10.258876
RightArm 7.230310 -46.767273 68.617316
RightForeArm 28.442181 -0.000000 32.030784
RightHand -5.716115 -0.000000 20.350137
RightHandThumb1 -24.326973 -0.000000 -32.862282
LeftShoulder -28.778545 3.709887 37.071072
LeftArm 124.054043 -52.334183 -107.144428
LeftForeArm -16.323711 -0.000000 65.097883
LeftHand -12.149595 -0.000000 9.548749
LeftHandThumb1 -26.253704 0.000000 33.147579
Head -24.737858 27.363629 -15.831614
854
root 1.631634 34.188403 -0.130688 75.706699 -17.397106 -25.187534
RightUpLeg -9.628677 19.726109 -22.742948
RightLeg 153.707234 -0.000000 -0.000000
RightFoot 36.892130 10.157462 5.637622
RightToeBase -22.020234 -0.000000 0.000000
LeftUpLeg -78.901643 15.508015 3.037277
LeftLeg 24.626742 -0.000000 -0.000000
LeftFoot -20.847147 14.399439 -8.329630
LeftToeBase 7.953574 -0.000000 -0.000000
Spine -9.405620 -5.691138 2.477778
RightShoulder -19.164107 -32.213460 -10.278817
RightArm 7.259392 -46.919347 68.469302
RightForeArm 28.473493 -0.000000 32.119745
RightHand -5.696444 0.000000 20.442125
RightHandThumb1 -24.326973 -0.000000 -32.862282
LeftShoulder -28.848711 3.799329 37.080496
LeftArm 124.698910 -52.624979 -107.547329
LeftForeArm -16.503063 -0.000000 64.975760
LeftHand -12.211273 -0.000000 9.541090
LeftHandThumb1 -26.253704 0.000000 33.147579
Head -24.874280 27.369309 -15.773831
855
root 1.640099 34.193433 -0.136374 76.081946 -17.381293 -25.382697
RightUpLeg -9.614999 19.771903 -22.841071
RightLeg 153.655308 -0.000000 -0.000000
RightFoot 36.837227 10.149445 5.516872
RightToeBase -22.108368 -0.000000 0.000000
LeftUpLeg -79.246720 15.670195 3.103821
LeftLeg 24.710846 -0.000000 -0.000000
LeftFoot -20.910235 14.436194 -8.346534
LeftToeBase 7.956851 -0.000000 -0.000000
Spine -9.542829 -5.591583 2.435965
RightShoulder -19.172798 -32.236294 -10.285596
RightArm 7.157424 -47.099748 68.412926
RightForeArm 28.605484 -0.000000 32.263701
RightHand -5.794533 -0.000000 20.335178
RightHandThumb1 -24.326973 -0.000000 -32.862282
LeftShoulder -28.953295 3.929335 37.080616
LeftArm 125.463072 -52.840971 -108.035960
LeftForeArm -16.691952 -0.000000 64.834392
LeftHand -12.263915 -0.000000 9.489189
LeftHandThumb1 -26.253704 0.000000 33.147579
Head -25.062669 27.427620 -15.699070
856
root 1.650419 34.201762 -0.142492 76.475275 -17.351097 -25.581035
RightUpLeg -9.644685 19.802463 -22.933609
RightLeg 153.600297 -0.000000 -0.000000
RightFoot 36.829300 9.969191 5.620917
RightToeBase -22.156630 -0.000000 0.000000
LeftUpLeg -79.609643 15.848544 3.132910
LeftLeg 24.765745 -0.000000 -0.000000
LeftFoot -20.951310 14.425716 -8.391400
LeftToeBase 7.973463 -0.000000 -0.000000
Spine -9.670920 -5.503638 2.408904
RightShoulder -19.209810 -32.260209 -10.246955
RightArm 7.138224 -47.296919 68.246326
RightForeArm 28.719140 -0.000000 32.384745
RightHand -5.832499 0.000000 20.365481
RightHandThumb1 -24.326973 -0.000000 -32.862282
LeftShoulder -29.070188 4.057995 37.124624
LeftArm 126.194235 -53.101074 -108.575082
LeftForeArm -16.878360 -0.000000 64.754848
LeftHand -12.316730 0.000000 9.470305
LeftHandThumb1 -26.253704 0.000000 33.147579
Head -25.330089 27.539782 -15.662743
857
root 1.663862 34.209756 -0.147518 76.880451 -17.342871 -25.750128
RightUpLeg -9.678618 19.855053 -23.072963
RightLeg 153.549345 -0.000000 -0.000000
RightFoot 36.848549 10.042366 5.435356
RightToeBase -22.053944 -0.000000 0.000000
LeftUpLeg -79.995572 16.015442 3.091153
LeftLeg 24.808161 -0.000000 -0.000000
LeftFoot -20.973768 14.385631 -8.434358
LeftToeBase 7.991342 -0.000000 -0.000000
Spine -9.835156 -5.386793 2.355393
RightShoulder -19.281276 -32.395416 -10.184120
RightArm 7.209826 -47.477981 68.046657
RightForeArm 28.849212 -0.000000 32.519085
RightHand -5.822273 -0.000000 20.283410
RightHandThumb1 -24.326973 -0.000000 -32.862282
LeftShoulder -29.172491 4.161510 37.150962
LeftArm 126.933966 -53.257501 -109.123602
LeftForeArm -17.054415 -0.000000 64.661285
LeftHand -12.391489 -0.000000 9.506005
LeftHandThumb1 -26.253704 0.000000 33.147579
Head -25.571843 27.633921 -15.686323
858
root 1.675610 34.218995 -0.153217 77.277300 -17.289590 -25.909850
RightUpLeg -9.693364 19.842236 -23.140642
RightLeg 153.510469 -0.000000 -0.000000
RightFoot 36.797720 10.010161 5.342692
RightToeBase -22.321061 -0.000000 0.000000
LeftUpLeg -80.387720 16.185049 3.047289
LeftLeg 24.830301 -0.000000 -0.000000
LeftFoot -20.975157 14.306059 -8.470795
LeftToeBase 7.985913 -0.000000 -0.000000
Spine -9.991941 -5.313477 2.360483
RightShoulder -19.301256 -32.424531 -10.178916
RightArm 7.111894 -47.621385 67.962178
RightForeArm 28.991779 -0.000000 32.668783
RightHand -5.896044 -0.000000 20.339999
RightHandThumb1 -24.326973 -0.000000 -32.862282
LeftShoulder -29.272675 4.215967 37.149995
LeftArm 127.636946 -53.448154 -109.605713
LeftForeArm -17.187160 -0.000000 64.571748
LeftHand -12.476045 -0.000000 9.521055
LeftHandThumb1 -26.253704 0.000000 33.147579
Head -25.709989 27.576644 -15.616883
859
root 1.686407 34.228197 -0.158807 77.649777 -17.236058 -26.030706
RightUpLeg -9.674822 19.789469 -23.219189
RightLeg 153.471506 -0.000000 -0.000000
RightFoot 36.832259 9.897163 5.356230
RightToeBase -22.376782 -0.000000 0.000000
LeftUpLeg -80.766210 16.332739 2.955506
LeftLeg 24.822388 -0.000000 -0.000000
LeftFoot -20.960889 14.182906 -8.515266
LeftToeBase 8.025551 -0.000000 -0.000000
Spine -10.127871 -5.246666 2.342704
RightShoulder -19.346296 -32.463660 -10.173285
RightArm 7.037203 -47.812535 67.901827
RightForeArm 29.167604 -0.000000 32.825278
RightHand -6.020513 -0.000000 20.217450
RightHandThumb1 -24.326973 -0.000000 -32.862282
LeftShoulder -29.405768 4.346752 37.142446
LeftArm 128.408414 -53.532881 -110.222444
LeftForeArm -17.382540 0.000000 64.538209
LeftHand -12.580010 -0.000000 9.646021
LeftHandThumb1 -26.253704 0.000000 33.147579
Head -25.971463 27.659176 -15.695474
860
root 1.698730 34.235803 -0.163292 78.028669 -17.185471 -26.116043
RightUpLeg -9.634685 19.726315 -23.302998
RightLeg 153.442858 -0.000000 -0.000000
RightFoot 36.745741 9.971425 5.163239
RightToeBase -22.132331 -0.000000 0.000000
LeftUpLeg -81.153447 16.440979 2.850096
LeftLeg 24.794616 -0.000000 -0.000000
LeftFoot -20.917310 14.085953 -8.496824
LeftToeBase 8.028517 -0.000000 -0.000000
Spine -10.301724 -5.192443 2.317640
RightShoulder -19.398008 -32.534967 -10.164594
RightArm 6.958368 -47.975604 67.839443
RightForeArm 29.248714 -0.000000 32.995635
RightHand -6.007707 -0.000000 20.264035
RightHandThumb1 -24.326973 -0.000000 -32.862282
LeftShoulder -29.543949 4.435120 37.121510
LeftArm 129.183995 -53.493240 -110.843694
LeftForeArm -17.389325 -0.000000 64.447696
LeftHand -12.545967 -0.000000 9.387514
LeftHandThumb1 -26.253704 0.000000 33.147579
Head -26.174964 27.697255 -15.743464
861
root 1.712475 34.242343 -0.166323 78.366371 -17.110769 -26.176379
RightUpLeg -9.558630 19.639011 -23.363427
RightLeg 153.397101 -0.000000 -0.000000
RightFoot 36.722913 9.959184 5.091645
RightToeBase -22.013482 -0.000000 0.000000
LeftUpLeg -81.498933 16.507575 2.785070
LeftLeg 24.750147 -0.000000 -0.000000
LeftFoot -20.881305 13.997933 -8.511968
LeftToeBase 8.054629 -0.000000 -0.000000
Spine -10.418265 -5.181625 2.348748
RightShoulder -19.459156 -32.558942 -10.197776
RightArm 6.889854 -48.196338 67.766043
RightForeArm 29.381465 0.000000 33.192782
RightHand -6.094543 0.000000 20.196361
RightHandThumb1 -24.326973 -0.000000 -32.862282
LeftShoulder -29.674748 4.512224 37.066204
LeftArm 129.944394 -53.552911 -111.459531
LeftForeArm -17.456049 -0.000000 64.421378
LeftHand -12.602251 -0.000000 9.338004
LeftHandThumb1 -26.253704 0.000000 33.147579
Head -26.123514 27.270624 -15.552719
